<svg xmlns="http://www.w3.org/2000/svg" viewBox="0 0 1600 900" role="img" aria-label="雨后街角一把被遗忘的伞">
  <defs>
    <linearGradient id="sky" x1="0" x2="1" y1="0" y2="1">
      <stop offset="0" stop-color="#263938"/>
      <stop offset=".55" stop-color="#617573"/>
      <stop offset="1" stop-color="#b3b7ac"/>
    </linearGradient>
    <linearGradient id="street" x1="0" x2="0" y1="0" y2="1">
      <stop offset="0" stop-color="#75837e"/>
      <stop offset="1" stop-color="#2c3634"/>
    </linearGradient>
  </defs>
  <rect width="1600" height="900" fill="url(#sky)"/>
  <rect y="515" width="1600" height="385" fill="url(#street)"/>
  <g opacity=".55">
    <rect x="80" y="120" width="210" height="390" fill="#1d2b2a"/>
    <rect x="350" y="70" width="260" height="440" fill="#314241"/>
    <rect x="980" y="105" width="240" height="410" fill="#233230"/>
    <rect x="1270" y="155" width="180" height="360" fill="#40504c"/>
  </g>
  <g opacity=".64" fill="#d7a83c">
    <rect x="398" y="160" width="52" height="82" rx="6"/>
    <rect x="1018" y="195" width="56" height="76" rx="6"/>
    <rect x="1330" y="235" width="42" height="64" rx="5"/>
  </g>
  <path d="M0 704c250-72 502-78 760-18 280 64 560 49 840-44v258H0Z" fill="#202a29" opacity=".46"/>
  <g opacity=".7" stroke="#e8eee8" stroke-width="6">
    <path d="M700 640h760"/>
    <path d="M620 720h610"/>
    <path d="M1120 575l190 325"/>
    <path d="M910 582l-120 318"/>
  </g>
  <ellipse cx="1120" cy="774" rx="245" ry="38" fill="#101716" opacity=".32"/>
  <g transform="translate(1010 560) rotate(-17)">
    <path d="M0 155C34 70 105 20 205 22c94 2 165 52 200 133H0Z" fill="#c54f35"/>
    <path d="M0 155c40-30 74-30 115 0 48-34 126-34 174 0 42-30 78-30 116 0" fill="none" stroke="#873722" stroke-width="12" stroke-linecap="round"/>
    <path d="M205 154v138c0 55 38 88 88 88 39 0 69-26 69-65" fill="none" stroke="#1d2524" stroke-width="18" stroke-linecap="round"/>
  </g>
</svg>
