<svg xmlns="http://www.w3.org/2000/svg" viewBox="0 0 800 600" role="img" aria-label="蓝色折伞靠在便利店外">
  <rect width="800" height="600" fill="#d8ddd7"/>
  <rect y="370" width="800" height="230" fill="#687873"/>
  <rect x="80" y="80" width="250" height="290" fill="#e9e8dc"/>
  <rect x="112" y="120" width="186" height="96" rx="6" fill="#b74d36"/>
  <rect x="405" y="52" width="190" height="318" fill="#aeb9b4"/>
  <path d="M430 455c53-85 126-113 219-82 49 16 87 48 114 96L430 455Z" fill="#2d6b9a"/>
  <path d="M430 455c54-24 105-18 153 18 52-25 112-26 180-4" fill="none" stroke="#16394f" stroke-width="10"/>
  <path d="M592 454v84c0 25 18 41 43 41 20 0 35-13 35-33" fill="none" stroke="#1b2423" stroke-width="12" stroke-linecap="round"/>
</svg>
