<svg xmlns="http://www.w3.org/2000/svg" viewBox="0 0 800 600" role="img" aria-label="透明伞停在银座路口">
  <rect width="800" height="600" fill="#182322"/>
  <rect y="365" width="800" height="235" fill="#303d3b"/>
  <g fill="#d5b349" opacity=".78">
    <rect x="80" y="70" width="110" height="220" rx="8"/>
    <rect x="235" y="110" width="82" height="160" rx="8"/>
    <rect x="620" y="55" width="92" height="210" rx="8"/>
  </g>
  <path d="M0 510h800" stroke="#e9e7d8" stroke-width="18" opacity=".5"/>
  <path d="M220 442c45-96 115-140 210-132 91 7 160 54 207 142H220Z" fill="#eaf4f2" opacity=".44"/>
  <path d="M220 442c41-28 78-26 111 4 56-35 112-34 168 0 47-28 92-26 138 6" fill="none" stroke="#f8ffff" stroke-width="7" opacity=".72"/>
  <path d="M430 442v90c0 32 23 52 55 52 26 0 45-17 45-42" fill="none" stroke="#f8ffff" stroke-width="11" stroke-linecap="round"/>
</svg>
